<?xml version="1.0" encoding="utf-8"?>
<!-- Generator: Adobe Illustrator 26.0.3, SVG Export Plug-In . SVG Version: 6.00 Build 0)  -->
<svg version="1.0" id="katman_1" xmlns="http://www.w3.org/2000/svg" xmlns:xlink="http://www.w3.org/1999/xlink" x="0px" y="0px"
	 viewBox="0 0 600 450" style="enable-background:new 0 0 600 450;" xml:space="preserve">
<style type="text/css">
	.st0{fill-rule:evenodd;clip-rule:evenodd;fill:#010202;}
</style>
<path class="st0" d="M407.7,172.6h-0.3c-73.7,0.8-88.7,1-96.2,0.9c-0.2-2.2-0.2-4.3-0.2-6.6c0-36.2-3.1-34.4,27.5-47.1
	c0.5-0.3,0.9-0.5,1.4-0.8c7-4.1,9.5-13.1,5.4-20.1c-2.8-4.8-7.9-7.5-13.1-7.3c-0.8,0-1.5,0.2-2.3,0.3c-42,16.5-47.1,25.8-47.1,75
	c0,2,0.1,4,0.2,6c-15.6-0.2-42-0.3-89.9-0.3h-6.1c-0.4,0-0.8,0.1-1.1,0.2c-48.2,3.7-86.1,43.9-86.1,93c0,51.5,41.8,93.3,93.3,93.3
	c30,0,56.6-14.2,73.7-36.1h67.1c17.1,22,43.7,36.1,73.7,36.1c51.5,0,93.3-41.8,93.3-93.3C500.6,214.5,459,172.8,407.7,172.6z
	 M248.4,281.8h-38.6v38.6h-27.9v-38.6h-38.6v-28h38.6v-38.6h27.9v38.6h38.6V281.8z M398.6,218c3.3-3.3,7.7-5,12-5s8.7,1.7,12,5
	c6.6,6.6,6.6,17.4,0,24c-6.6,6.6-17.4,6.6-24,0C392,235.4,392,224.6,398.6,218z M363.2,277.4c-6.6-6.6-6.6-17.4,0-24
	c3.3-3.3,7.7-5,12-5c4.4,0,8.7,1.7,12,5c6.6,6.6,6.6,17.4,0,24C380.6,284.1,369.8,284.1,363.2,277.4z M421,311.3
	c-6.6,6.6-17.4,6.6-24,0c-6.6-6.6-6.6-17.5,0-24.1c3.3-3.3,7.7-5,12-5c4.4,0,8.7,1.7,12,5C427.7,293.8,427.7,304.7,421,311.3z
	 M456.5,275.8c-6.6,6.6-17.4,6.6-24,0c-6.6-6.6-6.6-17.4,0-24c3.3-3.3,7.7-5,12-5c4.4,0,8.7,1.7,12,5
	C463.1,258.4,463.1,269.2,456.5,275.8z"/>
</svg>
